<svg width="20" height="20" viewBox="0 0 20 20" fill="none" xmlns="http://www.w3.org/2000/svg">
<rect width="20" height="20" rx="4" fill="#BEBEBE"/>
<path fill-rule="evenodd" clip-rule="evenodd" d="M15.7363 6.24645C15.9052 6.40412 16 6.61794 16 6.84088C16 7.06383 15.9052 7.27764 15.7363 7.43531L8.98687 13.7373C8.89768 13.8206 8.79178 13.8866 8.67523 13.9317C8.55868 13.9768 8.43376 14 8.3076 14C8.18145 14 8.05653 13.9768 7.93998 13.9317C7.82343 13.8866 7.71753 13.8206 7.62833 13.7373L4.27491 10.6067C4.1889 10.5292 4.1203 10.4364 4.07311 10.3338C4.02591 10.2312 4.00107 10.1209 4.00003 10.0093C3.99899 9.89765 4.02178 9.78693 4.06706 9.6836C4.11233 9.58027 4.1792 9.4864 4.26375 9.40746C4.3483 9.32851 4.44884 9.26608 4.55951 9.22381C4.67017 9.18153 4.78875 9.16026 4.90831 9.16123C5.02788 9.1622 5.14604 9.18539 5.25591 9.22946C5.36577 9.27352 5.46513 9.33757 5.5482 9.41788L8.3073 11.994L14.4625 6.24645C14.5461 6.16832 14.6454 6.10634 14.7547 6.06405C14.864 6.02177 14.9811 6 15.0994 6C15.2177 6 15.3348 6.02177 15.4441 6.06405C15.5534 6.10634 15.6527 6.16832 15.7363 6.24645Z" fill="#F2F2F2"/>
</svg>
