<svg width="24" height="24" viewBox="0 0 24 24" fill="none" xmlns="http://www.w3.org/2000/svg">
<path d="M8 12C7.71667 12 7.47933 12.096 7.288 12.288C7.09667 12.48 7.00067 12.7173 7 13V16C7 16.2833 7.096 16.521 7.288 16.713C7.48 16.905 7.71733 17.0007 8 17C8.28267 16.9993 8.52033 16.9033 8.713 16.712C8.90567 16.5207 9.00133 16.2833 9 16V13C9 12.7167 8.904 12.4793 8.712 12.288C8.52 12.0967 8.28267 12.0007 8 12ZM16 7C15.7167 7 15.4793 7.096 15.288 7.288C15.0967 7.48 15.0007 7.71733 15 8V16C15 16.2833 15.096 16.521 15.288 16.713C15.48 16.905 15.7173 17.0007 16 17C16.2827 16.9993 16.5203 16.9033 16.713 16.712C16.9057 16.5207 17.0013 16.2833 17 16V8C17 7.71667 16.904 7.47933 16.712 7.288C16.52 7.09667 16.2827 7.00067 16 7ZM12 14C11.7167 14 11.4793 14.096 11.288 14.288C11.0967 14.48 11.0007 14.7173 11 15V16C11 16.2833 11.096 16.521 11.288 16.713C11.48 16.905 11.7173 17.0007 12 17C12.2827 16.9993 12.5203 16.9033 12.713 16.712C12.9057 16.5207 13.0013 16.2833 13 16V15C13 14.7167 12.904 14.4793 12.712 14.288C12.52 14.0967 12.2827 14.0007 12 14ZM5 21C4.45 21 3.97933 20.8043 3.588 20.413C3.19667 20.0217 3.00067 19.5507 3 19V5C3 4.45 3.196 3.97933 3.588 3.588C3.98 3.19667 4.45067 3.00067 5 3H19C19.55 3 20.021 3.196 20.413 3.588C20.805 3.98 21.0007 4.45067 21 5V19C21 19.55 20.8043 20.021 20.413 20.413C20.0217 20.805 19.5507 21.0007 19 21H5ZM12 12C12.2833 12 12.521 11.904 12.713 11.712C12.905 11.52 13.0007 11.2827 13 11C12.9993 10.7173 12.9033 10.48 12.712 10.288C12.5207 10.096 12.2833 10 12 10C11.7167 10 11.4793 10.096 11.288 10.288C11.0967 10.48 11.0007 10.7173 11 11C10.9993 11.2827 11.0953 11.5203 11.288 11.713C11.4807 11.9057 11.718 12.0013 12 12Z" fill="#8D8989"/>
</svg>
